<?xml version="1.0" encoding="utf-8"?>
<!-- Generator: Adobe Illustrator 20.0.0, SVG Export Plug-In . SVG Version: 6.00 Build 0)  -->
<svg version="1.1" id="Layer_4" xmlns="http://www.w3.org/2000/svg" xmlns:xlink="http://www.w3.org/1999/xlink" x="0px" y="0px"
	 viewBox="0 0 1531.8 200" style="enable-background:new 0 0 1531.8 200;" xml:space="preserve">
<style type="text/css">
	.st0{fill:none;}
	.st1{fill:#FFC107;}
	.st2{fill:#0F9D58;}
	.st3{opacity:0.2;fill:#BF360C;enable-background:new    ;}
	.st4{opacity:0.2;fill:#263238;enable-background:new    ;}
	.st5{opacity:0.2;fill:#FFFFFF;enable-background:new    ;}
	.st6{fill:url(#XMLID_5_);}
	.st7{fill:url(#XMLID_6_);}
	.st8{fill:#4285F4;}
	.st9{fill:#DB4437;}
	.st10{opacity:0.2;fill:#1A237E;enable-background:new    ;}
	.st11{opacity:0.2;fill:#3E2723;enable-background:new    ;}
	.st12{fill:url(#XMLID_21_);}
	.st13{fill:#FFFFFF;}
</style>
<g id="XMLID_1_">
	<g id="XMLID_50_">
		<g id="XMLID_72_">
			<path id="XMLID_7_" class="st0" d="M122.5,90.6L70.1,0H0l57.8,100L0,200h70.1l52.4-90.6C125.8,103.6,125.8,96.4,122.5,90.6z"/>
			<path id="XMLID_80_" class="st1" d="M92.4,159.8l-16.6-28.7L35.9,200h34.2l22.8-39.4L92.4,159.8z"/>
			<path id="XMLID_8_" class="st0" d="M122.5,90.6L70.1,0H0l57.8,100L0,200h70.1l52.4-90.6C125.8,103.6,125.8,96.4,122.5,90.6z"/>
			<path id="XMLID_39_" class="st2" d="M57.8,100l18,31.1L35.9,200H0L57.8,100z"/>
			<path id="XMLID_9_" class="st0" d="M122.5,90.6L70.1,0H0l57.8,100L0,200h70.1l52.4-90.6C125.8,103.6,125.8,96.4,122.5,90.6z"/>
			<path id="XMLID_38_" class="st3" d="M70.1,198.4H36.8l-0.9,1.6h34.2l22.8-39.4l-0.5-0.8L70.1,198.4z"/>
			<path id="XMLID_10_" class="st0" d="M122.5,90.6L70.1,0H0l57.8,100L0,200h70.1l52.4-90.6C125.8,103.6,125.8,96.4,122.5,90.6z"/>
			<path id="XMLID_37_" class="st4" d="M0.9,198.4L0,200h35.9l0.9-1.6H0.9z"/>
			<path id="XMLID_11_" class="st0" d="M122.5,90.6L70.1,0H0l57.8,100L0,200h70.1l52.4-90.6C125.8,103.6,125.8,96.4,122.5,90.6z"/>
			<path id="XMLID_36_" class="st5" d="M0,200h0.9l57.4-99.2l-0.5-0.8L0,200z"/>
			<path id="XMLID_12_" class="st0" d="M122.5,90.6L70.1,0H0l57.8,100L0,200h70.1l52.4-90.6C125.8,103.6,125.8,96.4,122.5,90.6z"/>
			
				<radialGradient id="XMLID_5_" cx="669.707" cy="131.486" r="44.264" gradientTransform="matrix(1.5625 0 0 -1.5625 -953.7975 365.406)" gradientUnits="userSpaceOnUse">
				<stop  offset="0" style="stop-color:#BF360C;stop-opacity:0.2"/>
				<stop  offset="1" style="stop-color:#BF360C;stop-opacity:2.000000e-02"/>
			</radialGradient>
			<path id="XMLID_79_" class="st6" d="M92.9,160.6l-17.1-29.5l-4.2,7.2L92.9,160.6z"/>
			<path id="XMLID_13_" class="st0" d="M122.5,90.6L70.1,0H0l57.8,100L0,200h70.1l52.4-90.6C125.8,103.6,125.8,96.4,122.5,90.6z"/>
			
				<radialGradient id="XMLID_6_" cx="669.582" cy="131.206" r="44.623" gradientTransform="matrix(1.5625 0 0 -1.5625 -953.7975 365.406)" gradientUnits="userSpaceOnUse">
				<stop  offset="0" style="stop-color:#263238;stop-opacity:0.2"/>
				<stop  offset="1" style="stop-color:#263238;stop-opacity:2.000000e-02"/>
			</radialGradient>
			<path id="XMLID_78_" class="st7" d="M71.6,138.3l4.2-7.2l-18-31.1l-8.5,14.8L71.6,138.3z"/>
			<path id="XMLID_14_" class="st0" d="M122.5,90.6L70.1,0H0l57.8,100L0,200h70.1l52.4-90.6C125.8,103.6,125.8,96.4,122.5,90.6z"/>
			<g id="XMLID_75_">
				<g id="XMLID_76_">
					<path id="XMLID_77_" class="st8" d="M35.9,0H0l92.9,160.6l17.9-31.1L35.9,0z"/>
				</g>
			</g>
			<path id="XMLID_15_" class="st0" d="M122.5,90.6L70.1,0H0l57.8,100L0,200h70.1l52.4-90.6C125.8,103.6,125.8,96.4,122.5,90.6z"/>
			<path id="XMLID_35_" class="st9" d="M122.5,109.4c3.4-5.8,3.4-13,0-18.8L70.1,0H35.9l74.9,129.5L122.5,109.4z"/>
			<path id="XMLID_16_" class="st0" d="M122.5,90.6L70.1,0H0l57.8,100L0,200h70.1l52.4-90.6C125.8,103.6,125.8,96.4,122.5,90.6z"/>
			<path id="XMLID_34_" class="st10" d="M110.8,129.5l-0.4-0.8L92.9,159L0.9,0H0l92.9,160.6L110.8,129.5z"/>
			<path id="XMLID_17_" class="st0" d="M122.5,90.6L70.1,0H0l57.8,100L0,200h70.1l52.4-90.6C125.8,103.6,125.8,96.4,122.5,90.6z"/>
			<path id="XMLID_2_" class="st5" d="M70.1,1.6l52.4,90.6c1.5,2.7,2.3,5.6,2.5,8.6c0.1-3.5-0.7-7-2.5-10.2L70.1,0H0l0.9,1.6H70.1z"
				/>
			<path id="XMLID_18_" class="st0" d="M122.5,90.6L70.1,0H0l57.8,100L0,200h70.1l52.4-90.6C125.8,103.6,125.8,96.4,122.5,90.6z"/>
			<path id="XMLID_74_" class="st11" d="M110.8,129.5l11.6-20.1c1.8-3.1,2.6-6.7,2.5-10.2c-0.1,3-0.9,5.9-2.5,8.6l-12.1,20.9
				L110.8,129.5z"/>
			<path id="XMLID_19_" class="st0" d="M122.5,90.6L70.1,0H0l57.8,100L0,200h70.1l52.4-90.6C125.8,103.6,125.8,96.4,122.5,90.6z"/>
			
				<radialGradient id="XMLID_21_" cx="609.431" cy="232.86" r="134.35" gradientTransform="matrix(1.5625 0 0 -1.5625 -953.7975 365.406)" gradientUnits="userSpaceOnUse">
				<stop  offset="0" style="stop-color:#FFFFFF;stop-opacity:0.1"/>
				<stop  offset="1" style="stop-color:#FFFFFF;stop-opacity:0"/>
			</radialGradient>
			<path id="XMLID_73_" class="st12" d="M122.5,90.6L70.1,0H0l57.8,100L0,200h70.1l52.4-90.6C125.8,103.6,125.8,96.4,122.5,90.6z"/>
		</g>
	</g>
</g>
<path id="XMLID_3_" class="st13" d="M359.9,104.4c0,22-6.5,39.6-19.6,52.7c-14.8,15.6-34.1,23.4-57.9,23.4
	c-22.8,0-42.1-7.9-58.1-23.7c-15.9-15.8-23.9-35.4-23.9-58.7s8-42.9,23.9-58.7s35.3-23.7,58.1-23.7c11.3,0,22.1,2.2,32.4,6.6
	s18.5,10.3,24.7,17.6l-13.9,13.9C315.1,41.2,300.7,35,282.3,35c-16.6,0-31,5.8-43.1,17.5C227.1,64.2,221,79.3,221,98
	s6.1,33.8,18.2,45.5s26.5,17.5,43.1,17.5c17.6,0,32.3-5.9,44.1-17.6c7.6-7.6,12-18.3,13.2-31.9h-57.3v-19h76.4
	C359.5,96.6,359.9,100.6,359.9,104.4L359.9,104.4z"/>
<path id="XMLID_20_" class="st13" d="M380.3,176.9V19.1h48.2c24.2,0,43.6,7.3,58.2,21.9c14.5,14.6,21.8,33.6,21.8,57
	s-7.3,42.3-21.8,57c-14.5,14.6-33.9,21.9-58.2,21.9H380.3z M400.6,157.5h28c18.2,0,32.6-5.2,43.3-15.6c10.6-10.4,16-25,16-43.8
	c0-18.7-5.3-33.2-16-43.7s-25.1-15.8-43.3-15.8h-28V157.5z"/>
<path id="XMLID_23_" class="st13" d="M681,104.4c0,22-6.5,39.6-19.6,52.7c-14.8,15.6-34.1,23.4-57.9,23.4
	c-22.8,0-42.1-7.9-58.1-23.7c-15.9-15.8-23.9-35.4-23.9-58.7s8-42.9,23.9-58.7s35.3-23.7,58.1-23.7c11.3,0,22.1,2.2,32.4,6.6
	c10.3,4.4,18.5,10.3,24.7,17.6l-13.9,13.9C636.2,41.2,621.8,35,603.4,35c-16.6,0-31,5.8-43.1,17.5S542.1,79.3,542.1,98
	s6.1,33.8,18.2,45.5s26.5,17.5,43.1,17.5c17.6,0,32.3-5.9,44.1-17.6c7.6-7.6,12-18.3,13.2-31.9h-57.3v-19h76.4
	C680.6,96.6,681,100.6,681,104.4L681,104.4z"/>
<g>
	<path class="st13" d="M833.7,179.1h-21l-55-159.9H780L822.8,149h0.9l44.6-129.8h22.3L833.7,179.1z"/>
	<path class="st13" d="M927,31.9c0,4-1.4,7.4-4.2,10.3c-2.8,2.8-6.1,4.2-10.1,4.2s-7.3-1.4-10.1-4.2s-4.2-6.3-4.2-10.3
		s1.4-7.4,4.2-10.3c2.8-2.8,6.1-4.2,10.1-4.2s7.3,1.4,10.1,4.2C925.6,24.5,927,27.9,927,31.9z M922.9,69.7v109.4h-20.1V69.7H922.9z"
		/>
	<path class="st13" d="M996.1,182.7c-15.7,0-28.7-5.5-38.9-16.5s-15.3-24.9-15.3-41.8c0-16.7,5-30.6,14.9-41.7s22.6-16.6,38-16.6
		c15.9,0,28.5,5.2,37.9,15.7c9.4,10.5,14.1,25.2,14.1,44.1l-0.2,2.2h-84.1c0.3,10.7,3.8,19.4,10.5,25.9c6.7,6.6,14.7,9.8,24,9.8
		c12.8,0,22.9-6.6,30.2-19.7l17.9,8.9c-4.8,9.2-11.5,16.5-20,21.7C1016.5,180.1,1006.9,182.7,996.1,182.7z M964,111.2h61.4
		c-0.6-7.6-3.6-13.9-9.1-18.9s-12.8-7.5-22-7.5c-7.6,0-14.1,2.4-19.6,7.1C969.3,96.8,965.7,103.2,964,111.2z"/>
	<path class="st13" d="M1104.3,180.9c-8.7,0-16-2.8-21.7-8.3c-5.8-5.5-8.7-13.2-8.9-23V88.4h-18.8V69.7h18.8V36.2h20.1v33.5h26.2
		v18.8h-26.2V143c0,7.3,1.4,12.2,4.2,14.9c2.8,2.6,5.9,3.9,9.4,3.9c1.6,0,3.2-0.2,4.7-0.6c1.5-0.4,2.9-0.9,4.3-1.5l6.3,18.3
		C1117.4,179.9,1111.3,180.9,1104.3,180.9z"/>
	<path class="st13" d="M1140.3,69.7h19.2v15.2h0.9c3.1-5.4,7.8-9.8,14.1-13.4c6.3-3.6,12.9-5.4,19.8-5.4c13.1,0,23.2,3.8,30.3,11.5
		c7.1,7.7,10.6,18.6,10.6,32.7v68.8h-20.1v-67.4c-0.4-17.9-9.3-26.8-26.4-26.8c-8,0-14.7,3.3-20.1,9.9s-8.1,14.6-8.1,23.8v60.5
		h-20.1V69.7H1140.3z"/>
	<path class="st13" d="M1298.4,66.1c14.9,0,26.6,4.1,35.2,12.2s12.9,19.2,12.9,33.4v67.4h-19.2v-15.2h-0.9
		c-8.3,12.5-19.4,18.8-33.2,18.8c-11.8,0-21.7-3.6-29.6-10.7c-7.9-7.1-11.9-16.1-11.9-26.8c0-11.3,4.2-20.3,12.6-27
		s19.6-10.1,33.5-10.1c11.9,0,21.8,2.2,29.5,6.7v-4.7c0-7.1-2.8-13.2-8.3-18.2c-5.5-5-12-7.5-19.5-7.5c-11.2,0-20.1,4.8-26.7,14.5
		l-17.7-11.4C1264.8,73.3,1279.3,66.1,1298.4,66.1z M1272.3,145.6c0,5.4,2.2,9.8,6.7,13.4c4.4,3.6,9.7,5.4,15.6,5.4
		c8.4,0,16-3.2,22.6-9.6c6.6-6.4,9.9-13.9,9.9-22.6c-6.3-5.1-15-7.6-26.2-7.6c-8.2,0-15,2-20.4,6
		C1275.1,134.7,1272.3,139.7,1272.3,145.6z"/>
	<path class="st13" d="M1389.3,179.1h-20.1V69.7h19.2v15.2h0.9c3.1-5.4,7.8-9.8,14.1-13.4c6.3-3.6,12.6-5.4,18.9-5.4
		c7.9,0,14.8,1.9,20.8,5.6s10.3,8.9,13.1,15.4c8.9-14,21.2-21,36.9-21c12.4,0,21.9,3.9,28.6,11.6s10.1,18.8,10.1,33.1v68.3h-20.1
		v-65.2c0-10.3-1.8-17.7-5.5-22.2c-3.6-4.5-9.8-6.8-18.4-6.8c-7.7,0-14.2,3.4-19.5,10.1c-5.2,6.7-7.9,14.6-7.9,23.7v60.5h-20.1V114
		c0-10.3-1.8-17.7-5.5-22.2c-3.6-4.5-9.8-6.8-18.4-6.8c-7.7,0-14.2,3.4-19.5,10.1c-5.2,6.7-7.9,14.6-7.9,23.7v60.3H1389.3z"/>
</g>
</svg>
