<svg xmlns="http://www.w3.org/2000/svg" viewBox="0 0 1283.78 131.63"><defs><style>.cls-1{fill:#fff;}</style></defs><title>logo-hackathon</title><g id="Layer_2" data-name="Layer 2"><g id="Layer_1-2" data-name="Layer 1"><g id="_Group_" data-name="&lt;Group&gt;"><path id="_Compound_Path_" data-name="&lt;Compound Path&gt;" class="cls-1" d="M11.95,113.78H0v-93H11.95L44.28,77.41h.52L77.14,20.8H89.08v93H77.14V58.59L77.66,43h-.52L48,94H41L11.95,43h-.52l.52,15.58Z"/><path id="_Compound_Path_2" data-name="&lt;Compound Path&gt;" class="cls-1" d="M216.34,113.78v-93H250a27.07,27.07,0,0,1,19,7.27,23.26,23.26,0,0,1,7.92,18q0,13.77-12.6,19.35V66a22.58,22.58,0,0,1,11.43,8.12A21.56,21.56,0,0,1,280,87.28a24.49,24.49,0,0,1-8.31,19,28,28,0,0,1-19.87,7.53Zm11.95-81.55V60.66H250a14.46,14.46,0,0,0,10.65-4.29,13.8,13.8,0,0,0,.13-19.87,13.73,13.73,0,0,0-10.26-4.28Zm0,39.61v30.52h24A15.3,15.3,0,0,0,267.77,87a14.59,14.59,0,0,0-4.55-10.65,15.5,15.5,0,0,0-11.43-4.54Z"/><path id="_Compound_Path_3" data-name="&lt;Compound Path&gt;" class="cls-1" d="M307.12,113.78H295.17v-93h11.95Z"/><path id="_Compound_Path_4" data-name="&lt;Compound Path&gt;" class="cls-1" d="M379.71,113.78h-52.2v-93h11.95v81.55h40.25Z"/><path id="_Compound_Path_5" data-name="&lt;Compound Path&gt;" class="cls-1" d="M448.14,20.8V32.23H405.81V61.7H444V72.87H405.81v29.48h42.34v11.43H393.86v-93Z"/><path id="_Compound_Path_6" data-name="&lt;Compound Path&gt;" class="cls-1" d="M508.13,113.78H496.19v-93h11.95V60.66h46.49V20.8h11.95v93H554.62V71.83H508.13Z"/><path id="_Compound_Path_7" data-name="&lt;Compound Path&gt;" class="cls-1" d="M592.41,113.78H579.16l35.06-93h13.51l35.06,93H649.55l-9-25.19H601.5Zm28.31-78.31L605.53,77.41h30.91l-15.2-41.94Z"/><path id="_Compound_Path_8" data-name="&lt;Compound Path&gt;" class="cls-1" d="M719.16,115.85q-20.65,0-34.54-13.89T670.85,67.29q0-20.77,13.77-34.54,13.76-14,34.54-14,21,0,34.15,15.19l-8.57,8.31a31.74,31.74,0,0,0-25.58-12.08q-15.46,0-25.84,10.39T683.05,67.29q0,16.49,10.26,26.75t25.84,10.39q16.23,0,28.18-13.64l8.7,8.44A45.07,45.07,0,0,1,739.8,111.5,49.48,49.48,0,0,1,719.16,115.85Z"/><path id="_Compound_Path_9" data-name="&lt;Compound Path&gt;" class="cls-1" d="M825.12,20.8h15.45v.52L806,61.18l36.88,52.08v.52H828.24L798,70.4,783.69,86.89v26.88H771.75v-93h11.95V68.71h.52Z"/><path id="_Compound_Path_10" data-name="&lt;Compound Path&gt;" class="cls-1" d="M859.66,113.78H846.42l35.06-93H895l35.06,93H916.8l-9-25.19H868.75ZM888,35.47,872.78,77.41h30.91l-15.2-41.94Z"/><path id="_Compound_Path_11" data-name="&lt;Compound Path&gt;" class="cls-1" d="M974.33,32.23v81.55H962.38V32.23h-26V20.8h63.89V32.23Z"/><path id="_Compound_Path_12" data-name="&lt;Compound Path&gt;" class="cls-1" d="M1026.4,113.78h-11.95v-93h11.95V60.66h46.49V20.8h11.95v93h-11.95V71.83H1026.4Z"/><path id="_Compound_Path_13" data-name="&lt;Compound Path&gt;" class="cls-1" d="M1196.26,67.29q0,20.65-13.77,34.54t-34,14q-20.26,0-34-14t-13.77-34.54q0-20.65,13.77-34.54t34-14q20.25,0,34,14.15Q1196.25,46.77,1196.26,67.29Zm-83.37,0q0,16.1,10.13,26.62a34.11,34.11,0,0,0,25.45,10.52q15.19,0,25.32-10.52t10.26-26.62q0-16.23-10.26-26.62t-25.32-10.52A34.12,34.12,0,0,0,1123,40.66Q1112.89,51.19,1112.89,67.29Z"/><path id="_Compound_Path_14" data-name="&lt;Compound Path&gt;" class="cls-1" d="M1224,113.78H1212.1v-93h14.54l45.19,72.33h.52l-.52-17.92V20.8h11.95v93h-12.47L1224,37.94h-.52l.52,17.92Z"/></g><path id="_Compound_Path_15" data-name="&lt;Compound Path&gt;" class="cls-1" d="M181.79,0H124.2a12.38,12.38,0,0,0-12.34,12.34V119.29a12.38,12.38,0,0,0,12.34,12.34h57.59a12.38,12.38,0,0,0,12.34-12.34V12.34A12.38,12.38,0,0,0,181.79,0ZM136.54,6.17h32.91v4.11H136.54ZM153,123.4a8.23,8.23,0,1,1,8.23-8.23A8.23,8.23,0,0,1,153,123.4ZM185.9,98.72H120.09V16.45H185.9Zm0,0"/></g></g></svg>